# AST/ASF file generated using VICON BodyLanguage
# -----------------------------------------------
:version 1.10
:name VICON
:units
  mass 1.0
  length 0.45
  angle deg
:documentation
   .ast/.asf automatically generated from VICON data using
   VICON BodyBuilder and BodyLanguage model FoxedUp or BRILLIANT.MOD
:root
   order TX TY TZ RX RY RZ
   axis XYZ
   position 0 0 0  
   orientation 0 0 0 
:bonedata
  begin
     id 1 
     name lhipjoint
     direction 0.566809 -0.746272 0.349008 
     length 2.40479 
     axis 0 0 0  XYZ
  end
  begin
     id 2 
     name lfemur
     direction 0.34202 -0.939693 0  
     length 7.1578  
     axis 0 0 20  XYZ
    dof rx ry rz
    limits (-160.0 20.0)
           (-70.0 70.0)
           (-60.0 70.0)
  end
  begin
     id 3 
     name ltibia
     direction 0.34202 -0.939693 0   
     length 7.49137   
     axis 0 0 20   XYZ
    dof rx
    limits (-10.0 170.0)
  end
  begin
     id 4 
     name lfoot
     direction 0.0665746 -0.182912 0.980873   
     length 2.36784   
     axis -90 7.62852e-016 20   XYZ
    dof rx rz
    limits (-45.0 90.0)
           (-70.0 20.0)
  end
  begin
     id 5 
     name ltoes
     direction 1.53601e-011 -4.22058e-011 1   
     length 1.18966   
     axis -90 7.62852e-016 20   XYZ
    dof rx
    limits (-90.0 20.0)
  end
  begin
     id 6 
     name rhipjoint
     direction -0.550236 -0.756381 0.353735   
     length 2.37265  
     axis 0 0 0  XYZ 
  end
  begin
     id 7 
     name rfemur
     direction -0.34202 -0.939693 0   
     length 7.43386   
     axis 0 0 -20   XYZ
    dof rx ry rz
    limits (-160.0 20.0)
           (-70.0 70.0)
           (-70.0 60.0)
  end
  begin
     id 8 
     name rtibia
     direction -0.34202 -0.939693 0   
     length 7.50908   
     axis 0 0 -20   XYZ
    dof rx
    limits (-10.0 170.0)
 end
 begin
     id 9 
     name rfoot
     direction -0.0683029 -0.187661 0.979856   
     length 2.41173  
     axis -90 -7.62852e-016 -20   XYZ
    dof rx rz
    limits (-45.0 90.0)
           (-20.0 70.0)
  end
  begin
     id 10 
     name rtoes
     direction -1.53528e-011 -4.21968e-011 1   
     length 1.21082   
     axis -90 -7.62852e-016 -20   XYZ
    dof rx
    limits (-90.0 20.0)
  end
  begin
     id 11 
     name lowerback
     direction 0.013823 0.995423 -0.0945635   
     length 2.04495   
     axis 0 0 0   XYZ
    dof rx ry rz
    limits (-20.0 45.0)
           (-30.0 30.0)
           (-30.0 30.0)
  end
  begin
     id 12 
     name upperback
     direction 0.0276657 0.9994 -0.020853   
     length 2.05008   
     axis 0 0 0   XYZ
    dof rx ry rz
    limits (-20.0 45.0)
           (-30.0 30.0)
           (-30.0 30.0)
  end
  begin
     id 13 
     name thorax
     direction 0.019782 0.999531 0.0233827   
     length 2.06488   
     axis 0 0 0   XYZ
    dof rx ry rz
    limits (-20.0 45.0)
           (-30.0 30.0)
           (-30.0 30.0)
  end
  begin
     id 14 
     name lowerneck
     direction -0.0308541 0.994709 0.0979874   
     length 1.75553   
     axis 0 0 0   XYZ
    dof rx ry rz
    limits (-20.0 45.0)
           (-30.0 30.0)
           (-30.0 30.0)
  end
  begin
     id 15 
     name upperneck
     direction 0.0588398 0.995804 -0.0700903   
     length 1.76878   
     axis 0 0 0   XYZ
    dof rx ry rz
    limits (-20.0 45.0)
           (-30.0 30.0)
           (-30.0 30.0)
  end
  begin
     id 16
     name head
     direction 0.0209966 0.999159 -0.0352225  
     length 1.77193  
     axis 0 0 0   XYZ
    dof rx ry rz
    limits (-20.0 45.0)
           (-30.0 30.0)
           (-30.0 30.0)
  end
  begin
     id 17 
     name lclavicle
     direction 0.938182 0.335073 -0.0868338  
     length 3.58396  
     axis 0 0 0   XYZ
    dof ry rz
    limits (-20.0 10.0)
           (0.0 20.0)
  end
  begin
     id 18 
     name lhumerus
     direction 1 -4.48971e-011 -1.26313e-017   
     length 4.983   
     axis 180 -30 -90   XYZ
    dof rx ry rz
    limits (-60.0 90.0)
           (-90.0 90.0)
           (-90.0 90.0)
  end
  begin
     id 19
     name lradius
     direction 1 -4.48948e-011 -5.89033e-027   
     length 3.48356   
     axis 180 -30 -90   XYZ
    dof rx
    limits (-10.0 170.0)
  end
  begin
     id 20
     name lwrist
     direction 1 -4.48977e-011 -1.48983e-026   
     length 1.74178   
     axis 9.0955e-015 90 90   XYZ
    dof ry
    limits (-180.0 0.0)
 end
  begin
     id 21 
     name lhand
     direction 1 -4.49046e-011 -2.98066e-026   
     length 0.715259   
     axis 1.90115e-014 90 90   XYZ
    dof rx rz
    limits (-90.0 90.0)
           (-45.0 45.0)
  end
  begin
     id 22 
     name lfingers
     direction 1 -4.48907e-011 -5.95731e-026   
     length 0.576661   
     axis 3.80223e-014 90 90   XYZ
    dof rx
    limits (0.0 90.0)
  end
  begin
     id 23
     name lthumb
     direction 0.707107 -6.34963e-011 0.707107   
     length 0.827973   
     axis -90 45 -3.84942e-014   XYZ
    dof rx rz
    limits (-45.0 45.0)
           (-45.0 45.0)
  end
  begin
     id 24 
     name rclavicle
     direction -0.909637 0.398485 -0.11735   
     length 3.44819  
     axis 0 0 0   XYZ 
    dof ry rz
    limits (-10.0 20.0)
           (-20.0 0.0)
  end
  begin
     id 25 
     name rhumerus
     direction -1 -4.48978e-011 -1.09333e-027  
     length 5.2419   
     axis 180 30 90   XYZ
    dof rx ry rz
    limits (-90.0 60.0)
           (-90.0 90.0)
           (-90.0 90.0)
  end
  begin
     id 26 
     name rradius
     direction -1 -4.48953e-011 -7.61841e-027   
     length 3.44417   
     axis 180 30 90   XYZ
    dof rx
    limits (-10.0 170.0)
  end
  begin
     id 27 
     name rwrist
     direction -1 -4.48977e-011 -1.48983e-026   
     length 1.72209   
     axis 9.0955e-015 -90 -90   XYZ
    dof ry
    limits (-180.0 0.0)
  end
  begin
     id 28
     name rhand
     direction -1 -4.49027e-011 -2.98038e-026   
     length 0.622529   
     axis 1.90115e-014 -90 -90   XYZ
    dof rx rz
    limits (-90.0 90.0)
           (-45.0 45.0)
  end
  begin
     id 29
     name rfingers
     direction -1 -4.48838e-011 -5.95531e-026   
     length 0.501899   
     axis 3.80223e-014 -90 -90   XYZ
    dof rx
    limits (0.0 90.0)
  end
  begin
     id 30
     name rthumb
     direction -0.707107 -6.34937e-011 0.707107   
     length 0.720629   
     axis -90 -45 3.84942e-014   XYZ
    dof rx rz
    limits (-45.0 45.0)
           (-45.0 45.0)
  end
:hierarchy
  begin
    root lhipjoint rhipjoint lowerback
    lhipjoint lfemur
    lfemur ltibia
    ltibia lfoot
    lfoot ltoes
    rhipjoint rfemur
    rfemur rtibia
    rtibia rfoot
    rfoot rtoes
    lowerback upperback
    upperback thorax
    thorax lowerneck lclavicle rclavicle
    lowerneck upperneck
    upperneck head
    lclavicle lhumerus
    lhumerus lradius
    lradius lwrist
    lwrist lhand lthumb
    lhand lfingers
    rclavicle rhumerus
    rhumerus rradius
    rradius rwrist
    rwrist rhand rthumb
    rhand rfingers
  end

#!OML:ASF F:\VICON\USERDATA\Patient Classification 1\PLAYGROUND\JustinFriday\JustinFriday.ASF
:FULLY-SPECIFIED
:DEGREES
963
root 13.3542 26.0162 39.8919 145.105 3.81765 -177.197
lowerback 27.8207 -1.20142 1.05802
upperback 11.187 1.86029 2.41845
thorax -2.94027 2.20105 1.42379
lowerneck 7.55825 -0.231659 -6.0912
upperneck 4.64578 -1.19261 3.67105
head 0.228289 -0.857443 2.22979
rclavicle -9.59136e-015 -1.43125e-014
rhumerus 76.6027 -10.4076 -61.3734
rradius 95.8752
rwrist 4.86469
rhand -21.8968 -19.2845
rfingers 7.12502
rthumb 4.50843 -49.2165
lclavicle -9.59136e-015 -1.43125e-014
lhumerus 69.2983 20.3617 54.0469
lradius 92.5352
lwrist -7.46341
lhand -12.6828 7.68832
lfingers 7.12502
lthumb 13.399 37.2374
rfemur -29.0729 -11.877 17.4068
rtibia 91.8994
rfoot 46.5812 -4.58521
rtoes 65.493
lfemur -32.2105 13.2328 -1.62177
ltibia 96.1652
lfoot 16.6294 -11.63
ltoes 0.621164
964
root 13.3505 26.0179 39.9107 145.192 3.85156 -177.211
lowerback 28.0827 -1.19167 1.03228
upperback 11.178 1.89261 2.42287
thorax -3.0733 2.22278 1.42677
lowerneck 7.73689 -0.158867 -6.18496
upperneck 4.15954 -1.07883 3.80945
head 0.0389447 -0.787491 2.29496
rclavicle 2.16862e-014 3.77691e-014
rhumerus 76.9011 -10.8055 -61.188
rradius 96.0301
rwrist 4.65931
rhand -21.8126 -19.8411
rfingers 7.12502
rthumb 4.58969 -49.7714
lclavicle 2.16862e-014 3.77691e-014
lhumerus 69.4375 20.9005 53.7289
lradius 92.6406
lwrist -7.34583
lhand -12.6339 7.92831
lfingers 7.12502
lthumb 13.4461 37.4743
rfemur -29.3944 -11.7547 17.4527
rtibia 91.7431
rfoot 47.9715 -7.68061
rtoes 65.6432
lfemur -32.4729 13.4497 -1.44653
ltibia 96.6692
lfoot 15.8521 -12.0373
ltoes 0.0964074
965
root 13.3479 26.0166 39.9282 145.255 3.88123 -177.172
lowerback 28.3434 -1.19799 1.00013
upperback 11.1788 1.90705 2.44213
thorax -3.19459 2.23711 1.45525
lowerneck 7.89131 -0.0930998 -6.18491
upperneck 3.7478 -0.970893 3.85105
head -0.123517 -0.721629 2.31034
rclavicle -9.70939e-015 -2.18663e-014
rhumerus 77.2254 -11.1442 -61.0018
rradius 96.0922
rwrist 4.48678
rhand -21.6639 -20.3055
rfingers 7.12502
rthumb 4.73328 -50.2326
lclavicle -9.70939e-015 -2.18663e-014
lhumerus 69.5981 21.3801 53.4036
lradius 92.6139
lwrist -7.12867
lhand -12.7894 8.00475
lfingers 7.12502
lthumb 13.2962 37.5606
rfemur -29.3233 -11.7371 17.2282
rtibia 91.6508
rfoot 46.8263 -5.45275
rtoes 65.5685
lfemur -32.6598 13.4444 -1.20052
ltibia 97.1857
lfoot 15.4418 -11.8025
ltoes 0.313641
966
root 13.3449 26.0109 39.946 145.351 3.9791 -177.128
lowerback 28.5965 -1.20788 1.00232
upperback 11.1738 1.92109 2.45489
thorax -3.31783 2.25035 1.45707
lowerneck 7.92346 -0.408132 -6.09277
upperneck 3.47525 -0.770732 3.67573
head -0.21807 -0.360654 2.23086
rclavicle 2.50966e-015 1.43125e-014
rhumerus 77.6607 -11.4871 -60.9394
rradius 96.1411
rwrist 4.55576
rhand -21.331 -20.7484
rfingers 7.12502
rthumb 5.05477 -50.6681
lclavicle 2.50966e-015 1.43125e-014
lhumerus 69.7722 21.889 53.0264
lradius 92.6353
lwrist -6.7338
lhand -12.9686 8.15924
lfingers 7.12502
lthumb 13.1235 37.7263
rfemur -29.6514 -11.5687 17.4679
rtibia 91.252
rfoot 48.2243 -6.01399
rtoes 65.574
lfemur -32.8967 13.5217 -1.00004
ltibia 97.6479
lfoot 14.8795 -11.1925
ltoes 0.636607
967
root 13.3372 26.008 39.9631 145.612 4.10244 -176.994
lowerback 28.6135 -1.26568 1.19204
upperback 11.1675 1.89924 2.47171
thorax -3.33033 2.24365 1.37273
lowerneck 7.98182 -0.330209 -5.90483
upperneck 3.14574 -0.669367 3.45946
head -0.338116 -0.311471 2.12454
rclavicle -4.13721e-015 2.5842e-014
rhumerus 78.0875 -11.8995 -60.8577
rradius 96.194
rwrist 4.67348
rhand -21.0012 -21.2079
rfingers 7.12502
rthumb 5.37316 -51.1198
lclavicle -4.13721e-015 2.5842e-014
lhumerus 69.9142 22.4755 52.6579
lradius 92.8026
lwrist -6.34083
lhand -13.0712 8.41991
lfingers 7.12502
lthumb 13.0245 37.9933
rfemur -30.0933 -11.3395 17.6993
rtibia 91.0056
rfoot 48.4694 -5.32374
rtoes 65.5356
lfemur -33.3397 14.4575 -0.554652
ltibia 98.058
lfoot 14.3107 -11.4559
ltoes 1.0173
968
root 13.3283 25.9998 39.978 145.829 4.12224 -176.895
lowerback 28.6397 -1.33705 1.33799
upperback 11.1672 1.85183 2.47229
thorax -3.33982 2.22568 1.30343
lowerneck 8.0698 -0.254646 -5.8258
upperneck 2.8754 -0.577779 3.36612
head -0.443558 -0.267869 2.07922
rclavicle 5.71506e-015 -2.38542e-015
rhumerus 78.4215 -12.2983 -60.713
rradius 96.221
rwrist 4.52618
rhand -20.6924 -21.5999
rfingers 7.12502
rthumb 5.67135 -51.504
lclavicle 5.71506e-015 -2.38542e-015
lhumerus 69.9841 23.0864 52.221
lradius 92.9461
lwrist -5.8813
lhand -13.2189 8.67675
lfingers 7.12502
lthumb 12.8822 38.2592
rfemur -30.3969 -11.0918 17.7098
rtibia 90.8373
rfoot 48.6263 -5.44403
rtoes 65.5456
lfemur -33.8298 14.8307 -0.439102
ltibia 98.3563
lfoot 14.0507 -11.7991
ltoes 1.5366
969
root 13.3257 26.0041 39.9941 145.977 4.20729 -176.949
lowerback 28.6931 -1.31001 1.24766
upperback 11.203 1.87512 2.46662
thorax -3.32584 2.23976 1.34178
lowerneck 8.18319 -0.157013 -5.90471
upperneck 2.46822 -0.477519 3.477
head -0.598334 -0.225767 2.13119
rclavicle -1.05604e-015 4.37326e-015
rhumerus 78.8422 -12.6479 -60.6486
rradius 96.2209
rwrist 4.18236
rhand -20.5512 -21.8323
rfingers 7.12502
rthumb 5.80769 -51.7327
lclavicle -1.05604e-015 4.37326e-015
lhumerus 70.1344 23.6571 51.8384
lradius 92.9452
lwrist -5.48013
lhand -13.3516 8.87938
lfingers 7.12502
lthumb 12.7543 38.4698
rfemur -30.5134 -10.5965 17.6193
rtibia 90.587
rfoot 46.6059 -2.31048
rtoes 65.3746
lfemur -34.0862 14.9717 -0.443986
ltibia 98.5057
lfoot 13.8626 -11.7745
ltoes 1.69672
970
root 13.329 25.9907 40.0002 146.325 4.35226 -176.989
lowerback 28.4648 -1.21985 1.06181
upperback 11.2336 1.92036 2.49987
thorax -3.19072 2.24958 1.47812
lowerneck 8.39184 -0.0661631 -5.9862
upperneck 1.8445 -0.396807 3.64333
head -0.839362 -0.196768 2.20554
rclavicle 2.48481e-016 -1.98785e-014
rhumerus 79.3311 -12.9922 -60.6335
rradius 96.2182
rwrist 3.97396
rhand -20.7471 -21.9359
rfingers 7.12502
rthumb 5.61849 -51.8414
lclavicle 2.48481e-016 -1.98785e-014
lhumerus 70.3965 24.1933 51.5647
lradius 92.8312
lwrist -5.17631
lhand -13.4551 8.93442
lfingers 7.12502
lthumb 12.6545 38.5311
rfemur -31.074 -10.3775 17.7042
rtibia 90.3459
rfoot 47.2784 -1.94104
rtoes 65.3262
lfemur -34.4928 15.2953 -0.149215
ltibia 98.8909
lfoot 13.7777 -11.6203
ltoes 1.8802
971
root 13.3228 25.9912 40.0157 145.999 4.26252 -176.895
lowerback 29.1087 -1.34485 1.01883
upperback 11.3225 1.85332 2.4997
thorax -3.38607 2.25285 1.5095
lowerneck 8.57008 0.024616 -6.05884
upperneck 1.4529 -0.301988 3.8016
head -1.00272 -0.157014 2.27355
rclavicle 1.68967e-015 2.18663e-014
rhumerus 79.7081 -13.3456 -60.5489
rradius 96.2221
rwrist 3.83346
rhand -20.9764 -22.106
rfingers 7.12502
rthumb 5.39716 -52.0173
lclavicle 1.68967e-015 2.18663e-014
lhumerus 70.5666 24.7015 51.2629
lradius 92.8209
lwrist -4.84124
lhand -13.4903 8.97661
lfingers 7.12502
lthumb 12.6205 38.5754
rfemur -30.8155 -10.2791 17.6358
rtibia 89.9213
rfoot 48.8014 -5.30644
rtoes 65.5734
lfemur -34.1713 15.0738 0.0549886
ltibia 99.1135
lfoot 13.6955 -11.3677
ltoes 2.61604
